<svg width="100" height="100" viewBox="0 0 100 100" fill="none" xmlns="http://www.w3.org/2000/svg">
<rect width="100" height="100" rx="32" fill="black"/>
<path d="M53.3126 34.0165C55.1666 32.2118 55.1666 29.1907 53.3126 27.3905C51.4586 25.5365 48.4868 25.5365 46.6328 27.3905C44.8281 29.1951 44.8281 32.2163 46.6328 34.0703C48.4868 35.8749 51.4586 35.875 53.3126 34.0165Z" fill="white"/>
<path d="M43.1855 62.5924C44.7746 61.0572 44.7746 58.5118 43.1855 56.972L36.2947 50.0274L43.1855 43.1365C44.7746 41.5967 44.7746 39.0514 43.1855 37.5161C41.6457 35.9269 39.1049 35.9269 37.5651 37.5161V37.4623C31.6798 43.4014 36.6628 38.414 30.7281 44.2992L25 50.0274L25.7946 50.8758C33.3767 58.404 30.0368 55.0642 37.5651 62.5924C39.1049 64.1816 41.6457 64.1816 43.1855 62.5924Z" fill="white"/>
<path d="M46.8436 65.83C44.9896 67.6841 44.9896 70.7098 46.8436 72.5099C48.6976 74.3639 51.6695 74.3639 53.5235 72.5099C55.3775 70.7098 55.3775 67.6841 53.5235 65.83C51.6695 64.0254 48.6976 64.0254 46.8436 65.83Z" fill="white"/>
<path d="M69.1142 44.1432L68.1087 43.1916L61.9586 37.0415C60.3694 35.4523 57.8779 35.4523 56.2843 37.0415C54.749 38.5768 54.749 41.1221 56.2843 42.6619L59.8352 46.1633L65.9359 52.3135L63.6554 50.033L56.7646 56.9777L56.2843 57.3996C54.749 58.9888 54.749 61.4803 56.2843 63.074C57.8734 64.6137 60.3694 64.6137 61.9586 63.074L68.1087 56.9238L58.6725 66.3599L61.375 63.6575L74.151 50.8814L74.9995 50.033L69.222 44.3049L69.1142 44.1477V44.1432Z" fill="white"/>


</svg>
